<svg xmlns="http://www.w3.org/2000/svg" viewBox="0 0 73.5 134.41"><defs><style>.cls-1{fill:#4caf50;}.cls-2{fill:#fff;}.cls-3{fill:#e8e3e5;}.cls-4{fill:#f44336;}.cls-5{fill:#e5e4e3;}.cls-6{stroke:#000;stroke-miterlimit:10;}.cls-7{fill:#ff9800;}</style></defs><title>Asset 2</title><g id="Layer_2" data-name="Layer 2"><g id="dog"><g id="body"><circle id="shadow" class="cls-1" cx="37.73" cy="75.07" r="35.77"/><g id="ass"><circle id="_Path_" data-name="&lt;Path&gt;" class="cls-2" cx="37.33" cy="64.58" r="25.65"/><path id="_Path_2" data-name="&lt;Path&gt;" class="cls-3" d="M36.78,80A32.73,32.73,0,0,1,9.1,64.76a28.18,28.18,0,0,0,56.32-1.4v-.2A32.75,32.75,0,0,1,36.78,80Z"/></g><g id="tail"><g id="_Group_" data-name="&lt;Group&gt;"><path id="_Path_3" data-name="&lt;Path&gt;" class="cls-2" d="M45.09,41.35a38.34,38.34,0,0,1,4.45.29c7.82-12.51-6.15-25-2.63-37.53.61-2.26,0-4.11-2.07-4.11s-5.21,1.85-5.92,4.11c-4,12.52,9.53,25,1.22,37.55A47.94,47.94,0,0,1,45.09,41.35Z"/></g></g></g><g id="face"><g id="tongue"><circle id="_Path_4" data-name="&lt;Path&gt;" class="cls-4" cx="37.62" cy="125.17" r="9.23"/></g><g id="face_edges" data-name="face edges"><path id="_Path_5" data-name="&lt;Path&gt;" class="cls-2" d="M62.84,97.11a25.33,25.33,0,1,0-39.39,21.06,14.64,14.64,0,0,0,28.13,0A25.29,25.29,0,0,0,62.84,97.11Z"/></g><g id="ears"><g id="_Group_2" data-name="&lt;Group&gt;"><path id="_Path_6" data-name="&lt;Path&gt;" class="cls-2" d="M25.76,75.65A23.71,23.71,0,0,0,0,65.38,23.74,23.74,0,0,0,15.07,85.49,25.46,25.46,0,0,1,25.76,75.65Z"/></g><path id="_Path_7" data-name="&lt;Path&gt;" class="cls-5" d="M.38,68A23.72,23.72,0,0,0,14.94,85.43,28.77,28.77,0,0,0,.38,68Z"/><g id="_Group_3" data-name="&lt;Group&gt;"><path id="_Path_8" data-name="&lt;Path&gt;" class="cls-2" d="M46.81,74.71a23.67,23.67,0,0,1,18.75-13,23.3,23.3,0,0,1,5.79.1A23.76,23.76,0,0,1,58.46,83.39,25.48,25.48,0,0,0,46.81,74.71Z"/></g><path id="_Path_9" data-name="&lt;Path&gt;" class="cls-5" d="M71.25,64.41A23.77,23.77,0,0,1,58.59,83.32,28.74,28.74,0,0,1,71.25,64.41Z"/></g><g id="nose"><path id="_Path_10" data-name="&lt;Path&gt;" d="M42.09,118.38a2.76,2.76,0,0,1-2.33,2.75,2.67,2.67,0,0,1-1.93.83,2.71,2.71,0,0,1-1.94-.83,2.76,2.76,0,0,1-2.32-2.75,2.8,2.8,0,0,1,1.72-2.59,2.71,2.71,0,0,1,5.07,0A2.8,2.8,0,0,1,42.09,118.38Z"/><path id="_Path_11" data-name="&lt;Path&gt;" class="cls-5" d="M37,121.77v6.93c.4,0,.8.05,1.21.05l.76,0v-7a4.74,4.74,0,0,1-1,.21A4.66,4.66,0,0,1,37,121.77Z"/></g><g id="eyes"><g id="right"><ellipse id="_Path_12" data-name="&lt;Path&gt;" class="cls-6" cx="48.53" cy="90.51" rx="2.14" ry="2.41"/></g><g id="left"><path id="_Path_13" data-name="&lt;Path&gt;" class="cls-7" d="M35.54,99.67c0-.49-.1-1-.16-1.5a29,29,0,0,0-4.79-13.08,9.63,9.63,0,1,0,4.95,14.58Z"/><ellipse id="_Path_14" data-name="&lt;Path&gt;" class="cls-6" cx="26.71" cy="90.51" rx="2.14" ry="2.41"/></g></g></g></g></g></svg>