<svg xmlns="http://www.w3.org/2000/svg" viewBox="0 0 60.99 74.15"><defs><style>.cls-1{fill:#448aff;}.cls-2{fill:#69a2f4;}.cls-3{fill:#fcfcfc;}.cls-4{fill:#f1f2f0;}.cls-5{fill:none;stroke:#ccc;stroke-miterlimit:10;}.cls-6{fill:#363f2a;}.cls-7{fill:#b2bca2;}.cls-8{fill:#d3aa62;}.cls-9{fill:#3ba34a;}.cls-10{fill:#3e4249;}.cls-11{fill:#d7ddd8;}.cls-12{fill:#f44336;}.cls-13{fill:#4caf50;}.cls-14{fill:#fff;}.cls-15{fill:#e8e3e5;}.cls-16{fill:#e5e4e3;}.cls-17{fill:#ff9800;}</style></defs><title>Asset 5</title><g id="Layer_2" data-name="Layer 2"><g id="website"><g id="icons"><g id="business"><g id="first"><polygon class="cls-1" points="21.08 0 21.08 16.29 14.99 20.19 14.99 44.01 21.08 44.01 39.15 44.01 39.15 0 21.08 0"/></g><g id="last"><rect class="cls-2" y="14.46" width="15.67" height="29.55"/><rect class="cls-3" x="2.77" y="18.75" width="2.59" height="4.93"/><rect class="cls-3" x="6.65" y="18.75" width="2.59" height="4.93"/><rect class="cls-3" x="2.77" y="25.77" width="2.59" height="4.93"/><rect class="cls-3" x="6.65" y="25.77" width="2.59" height="4.93"/><rect class="cls-3" x="2.77" y="32.85" width="2.59" height="4.93"/><rect class="cls-3" x="6.65" y="32.85" width="2.59" height="4.93"/></g><g id="middle"><rect class="cls-4" x="12.52" y="22.67" width="13.6" height="21.34"/><line class="cls-5" x1="15.46" y1="32.2" x2="23.17" y2="32.2"/><line class="cls-5" x1="15.46" y1="36.14" x2="23.17" y2="36.14"/><line class="cls-5" x1="15.46" y1="40.07" x2="23.17" y2="40.07"/><line class="cls-5" x1="15.46" y1="28.27" x2="23.17" y2="28.27"/><rect class="cls-4" x="28.68" y="11.56" width="3.68" height="3.68"/><rect class="cls-4" x="33.41" y="11.56" width="3.68" height="3.68"/><rect class="cls-4" x="28.68" y="16.4" width="3.68" height="3.68"/><rect class="cls-4" x="33.41" y="16.4" width="3.68" height="3.68"/><rect class="cls-4" x="28.68" y="21.34" width="3.68" height="3.68"/><rect class="cls-4" x="33.41" y="21.34" width="3.68" height="3.68"/><rect class="cls-4" x="28.68" y="26.17" width="3.68" height="3.68"/><rect class="cls-4" x="33.41" y="26.17" width="3.68" height="3.68"/></g></g><g id="person"><path id="right_foot" data-name="right foot" class="cls-6" d="M54,63.7a.93.93,0,0,1-.32.85,1.16,1.16,0,0,1-.95.09,1.34,1.34,0,0,1-.92-.76c-.17-.45-.1-1.16.23-1.34s.41,0,.87.24C53.63,63.11,54,63.29,54,63.7Z"/><path id="foot" class="cls-6" d="M49.17,63.71a1,1,0,0,1-.31.86,1.18,1.18,0,0,1-1,.08,1.34,1.34,0,0,1-.93-.77c-.17-.46-.11-1.17.22-1.35s.42,0,.88.24C48.75,63.12,49.11,63.3,49.17,63.71Z"/><path class="cls-7" d="M49.08,49l-1.52,7.88a.25.25,0,0,0,0,.08v5l.35,2.4a.41.41,0,0,0,.4.34h.92a.4.4,0,0,0,.4-.4V56.93a.41.41,0,0,1,.05-.18l1.71-3.3a.4.4,0,0,1,.75.13l.49,3.23a.13.13,0,0,1,0,.06v7.42a.4.4,0,0,0,.4.4h.71a.4.4,0,0,0,.4-.37l.29-3.8.42-3.66V49.55a.39.39,0,0,0-.39-.4L49.08,49"/><path id="left_hand" data-name="left hand" class="cls-8" d="M44.65,47.71c0,.87,0,.91.1,1a.81.81,0,0,0,1,.15c.37-.3.19-1.21-.3-1.56-.23-.16-.6-.25-.75-.1S44.63,47.39,44.65,47.71Z"/><path id="right_hand" data-name="right hand" class="cls-8" d="M61,30.1c0-.87,0-.91-.1-1a.8.8,0,0,0-1-.15c-.37.3-.19,1.21.3,1.55.23.16.6.25.76.1S61,30.43,61,30.1Z"/><path class="cls-9" d="M50.43,38h3.33c.6,0,2.38.44,1.82,1.55l-.29,2v6.68c0,1.11-.58,2-1.29,2H50.11c-.71,0-1.29-.9-1.29-2V41.94h0l-.24-2.39C48.41,38.11,49.83,38,50.43,38Z"/><path class="cls-9" d="M54.47,38.63a.65.65,0,0,1,.32-.24c.75-.27,2.57-2.34,3.62-5.13.68-1.79.77-3.16,1.36-3.22a.77.77,0,0,1,.59.36c1.26,1.87-4.68,10.28-5.73,9.66A1.3,1.3,0,0,1,54.47,38.63Z"/><path class="cls-9" d="M44.64,47.58l.64-3.92a.51.51,0,0,1,.07-.17L49,38.4a.25.25,0,0,1,.43,0l.31.48a.45.45,0,0,1,0,.42l-3.24,5.36a.39.39,0,0,0-.06.15L46,47.76a.32.32,0,0,1-.31.3L44.88,48A.33.33,0,0,1,44.64,47.58Z"/><rect class="cls-8" x="51.2" y="35.46" width="1.85" height="2.57" rx="0.91" ry="0.91"/><path class="cls-10" d="M53,36.6a2.26,2.26,0,0,1-2-.2,2,2,0,0,1-.85-1.77,2.43,2.43,0,0,1,1.27-2.32,2.26,2.26,0,0,1,1.57-.1c1.28.5,1,2.48,1,2.67A2,2,0,0,1,53,36.6Z"/></g><g id="person_2" data-name="person 2"><path id="right_foot-2" data-name="right foot" class="cls-6" d="M28.85,67.11a.79.79,0,0,0,.27.72.92.92,0,0,0,.8.07,1.09,1.09,0,0,0,.77-.63c.15-.39.09-1-.19-1.13s-.35,0-.73.2C29.2,66.62,28.9,66.77,28.85,67.11Z"/><path id="foot-2" data-name="foot" class="cls-6" d="M33,67.12a.77.77,0,0,0,.26.72.93.93,0,0,0,.8.07,1.1,1.1,0,0,0,.79-.64c.15-.39.1-1-.18-1.15s-.36,0-.74.21C33.31,66.62,33,66.77,33,67.12Z"/><path class="cls-11" d="M33,54.7l1.28,6.65v4.29l-.29,2a.34.34,0,0,1-.34.29h-.78a.34.34,0,0,1-.34-.34v-6.2a.41.41,0,0,0,0-.16L31.1,58.47a.34.34,0,0,0-.64.1L30,61.3v6.31a.34.34,0,0,1-.34.34h-.6a.35.35,0,0,1-.34-.32l-.24-3.2-.35-3.09s0,0,0,0V55.18a.34.34,0,0,1,.33-.34L33,54.7"/><path id="left_hand-2" data-name="left hand" class="cls-8" d="M36.77,53.63c0,.73,0,.77-.08.84a.67.67,0,0,1-.85.13c-.32-.25-.16-1,.26-1.31.19-.13.5-.21.63-.08S36.79,53.35,36.77,53.63Z"/><path id="right_hand-2" data-name="right hand" class="cls-8" d="M23,38.77c0-.73,0-.76.08-.84a.68.68,0,0,1,.85-.13c.32.25.16,1-.26,1.31-.19.13-.5.21-.63.08S23,39.05,23,38.77Z"/><path class="cls-2" d="M31.89,45.43h-2.8c-.52,0-2,.38-1.54,1.31l.25,1.72v5.63c0,.94.48,1.7,1.08,1.7h3.29c.6,0,1.08-.76,1.08-1.7V48.76h0l.21-2C33.6,45.53,32.4,45.43,31.89,45.43Z"/><path class="cls-2" d="M28.49,46a.53.53,0,0,0-.28-.2c-.63-.23-2.16-2-3.05-4.33-.57-1.51-.65-2.67-1.14-2.72a.62.62,0,0,0-.5.31c-1.07,1.58,3.94,8.66,4.83,8.15A1.11,1.11,0,0,0,28.49,46Z"/><path class="cls-2" d="M36.78,53.52l-.55-3.31a.34.34,0,0,0,0-.14l-3-4.29a.21.21,0,0,0-.36,0l-.26.4a.36.36,0,0,0,0,.35l2.73,4.52a.29.29,0,0,1,0,.13l.32,2.49a.27.27,0,0,0,.26.25l.7-.07A.27.27,0,0,0,36.78,53.52Z"/><rect class="cls-8" x="29.68" y="43.3" width="1.56" height="2.16" rx="0.77" ry="0.77" transform="translate(60.93 88.76) rotate(-180)"/><path class="cls-10" d="M29.7,44.26a1.88,1.88,0,0,0,1.67-.18,1.64,1.64,0,0,0,.71-1.48,2,2,0,0,0-1.06-2,1.89,1.89,0,0,0-1.32-.09c-1.09.42-.84,2.1-.82,2.26A1.66,1.66,0,0,0,29.7,44.26Z"/></g><g id="person_3" data-name="person 3"><path id="right_foot-3" data-name="right foot" class="cls-6" d="M42.82,73.21a.88.88,0,0,1-.29.79,1,1,0,0,1-.86.08,1.17,1.17,0,0,1-.84-.7c-.16-.42-.1-1.08.2-1.24s.38,0,.8.22C42.44,72.67,42.77,72.83,42.82,73.21Z"/><path id="foot-3" data-name="foot" class="cls-6" d="M39.68,73.22a.84.84,0,0,1-.29.79,1,1,0,0,1-.87.08,1.22,1.22,0,0,1-.85-.71c-.16-.43-.1-1.09.2-1.26s.38,0,.8.23C39.3,72.67,39.62,72.83,39.68,73.22Z"/><path id="left_hand-3" data-name="left hand" class="cls-8" d="M36.14,61.22c.23.73.23.77.31.83a.69.69,0,0,0,.88-.09c.25-.34-.11-1.08-.6-1.26-.23-.09-.56-.09-.66.08S36.05,60.94,36.14,61.22Z"/><path id="right_hand-3" data-name="right hand" class="cls-8" d="M44.78,62.43c-.33.7-.33.74-.42.79a.69.69,0,0,1-.86-.2c-.2-.37.25-1.06.76-1.18.24-.05.57,0,.64.17S44.9,62.17,44.78,62.43Z"/><path class="cls-12" d="M42.37,53.29a.61.61,0,0,0,.18.31c.51.46,1.29,2.76,1.21,5.39,0,1.7-.44,2.85,0,3.09a.63.63,0,0,0,.6-.1C46,60.86,44,52,43,52.17A1.16,1.16,0,0,0,42.37,53.29Z"/><path class="cls-12" d="M36.11,61.11l-.35-3.51a.88.88,0,0,1,0-.16l1.9-5.16a.21.21,0,0,1,.36-.09l.37.34a.35.35,0,0,1,.09.35L37,58.2a.32.32,0,0,0,0,.14L37.31,61a.28.28,0,0,1-.19.33l-.72.11C36.26,61.42,36.12,61.28,36.11,61.11Z"/><path class="cls-12" d="M35.5,73.24l7.47.57a1,1,0,0,0,1-1.17L42.88,61.88h0a2.86,2.86,0,0,0,.08-.67V55.08a.61.61,0,0,1,0-.14l.22-1.82c.46-1-1-1.44-1.48-1.44H39c-.49,0-1.65.11-1.52,1.44l.2,2.22h0v5.87a2.86,2.86,0,0,0,.08.67h0l-3.08,10A1.05,1.05,0,0,0,35.5,73.24Z"/><path class="cls-10" d="M42.34,50.27c0-1,0-3.17-.91-3.82a1.28,1.28,0,0,0-1.43.16c-.65.5-.93,2.14-.92,3.66h0v2l-.19,0a3.21,3.21,0,0,0,2.91,2l.26-1.94a8.64,8.64,0,0,0,.26-1.71s0-.22,0-.45Z"/></g><g id="dog"><circle id="shadow" class="cls-13" cx="20.34" cy="53.63" r="4.9"/><circle id="_Path_" data-name="&lt;Path&gt;" class="cls-14" cx="19.47" cy="52.49" r="3.52"/><path id="_Path_2" data-name="&lt;Path&gt;" class="cls-15" d="M20.63,54.26a4.49,4.49,0,0,1-4.31.47,3.86,3.86,0,0,0,6.21-4.59v0A4.48,4.48,0,0,1,20.63,54.26Z"/><circle id="_Path_3" data-name="&lt;Path&gt;" class="cls-12" cx="24.27" cy="59.27" r="1.27"/><path id="_Path_4" data-name="&lt;Path&gt;" class="cls-14" d="M24.9,54.14a3.47,3.47,0,1,0-2.77,5.46,2,2,0,0,0,3.16-2.21A3.48,3.48,0,0,0,24.9,54.14Z"/><g id="_Group_" data-name="&lt;Group&gt;"><path id="_Path_5" data-name="&lt;Path&gt;" class="cls-14" d="M19,54.64a3.25,3.25,0,0,0-3.11.34,3.33,3.33,0,0,0-.59.53,3.27,3.27,0,0,0,3.28,1.08A3.47,3.47,0,0,1,19,54.64Z"/></g><path id="_Path_6" data-name="&lt;Path&gt;" class="cls-16" d="M15.59,55.77a3.25,3.25,0,0,0,3,.82A4,4,0,0,0,15.59,55.77Z"/><g id="_Group_2" data-name="&lt;Group&gt;"><path id="_Path_7" data-name="&lt;Path&gt;" class="cls-14" d="M21.34,52.88a3.27,3.27,0,0,1,1.74-3.38,3.29,3.29,0,0,1,.25,3.44A3.55,3.55,0,0,0,21.34,52.88Z"/></g><path id="_Path_8" data-name="&lt;Path&gt;" class="cls-16" d="M23.27,49.8a3.23,3.23,0,0,1,.06,3.12A4,4,0,0,1,23.27,49.8Z"/><path id="_Path_9" data-name="&lt;Path&gt;" d="M24.24,58.16a.38.38,0,0,1,0,.49.37.37,0,0,1-.15.24.36.36,0,0,1-.28.06.39.39,0,0,1-.48-.12.39.39,0,0,1,0-.43.37.37,0,0,1,.15-.4.38.38,0,0,1,.42,0A.38.38,0,0,1,24.24,58.16Z"/><path id="_Path_10" data-name="&lt;Path&gt;" class="cls-16" d="M23.93,58.94l.54.78.14-.09.08-.06-.54-.78-.1.1Z"/><ellipse id="_Path_11" data-name="&lt;Path&gt;" cx="22.86" cy="54.65" rx="0.22" ry="0.25" transform="translate(-27.2 22.97) rotate(-34.98)"/><path id="_Path_12" data-name="&lt;Path&gt;" class="cls-17" d="M22,56.57l-.14-.16a3.94,3.94,0,0,0-1.56-1.09,1.46,1.46,0,0,0-.38.18,1.32,1.32,0,0,0,1.52,2.17A1.31,1.31,0,0,0,22,56.57Z"/><path id="_Path_13" data-name="&lt;Path&gt;" class="cls-14" d="M16.92,50.82l-.14-2.51a.52.52,0,0,0-.1-.27l-1.37-2a.34.34,0,0,0-.12-.12l-.53-.36a.52.52,0,0,1-.2-.57h0a.51.51,0,0,1,.72-.31,11.6,11.6,0,0,1,1,.6s0,0,0,0l1.2,2.24a.34.34,0,0,1,.05.17l.41,2.7a.53.53,0,0,1-.13.42l-.55.58-.13-.19A.85.85,0,0,1,16.92,50.82Z"/><ellipse id="_Path_14" data-name="&lt;Path&gt;" cx="20.34" cy="56.32" rx="0.22" ry="0.25" transform="translate(-28.61 21.84) rotate(-34.98)"/></g></g></g></g></svg>