<svg xmlns="http://www.w3.org/2000/svg" viewBox="0 0 142.98 36.56"><defs><style>.cls-1{font-size:33.63px;font-family:Ubuntu-Bold, Ubuntu Bold;font-weight:700;}.cls-1,.cls-4{fill:#3f51b5;}.cls-2{letter-spacing:0em;}.cls-3{letter-spacing:0em;}</style></defs><title>Asset 12</title><g id="Layer_2" data-name="Layer 2"><g id="website"><g id="Join_our_network" data-name="Join our network"><g id="logo"><text class="cls-1" transform="translate(0 28.15)">f<tspan class="cls-2" x="9.82" y="0">r</tspan><tspan class="cls-3" x="20.95" y="0">i</tspan></text><text class="cls-1" transform="translate(63.75 28.15)">ndich</text><g id="_Group_" data-name="&lt;Group&gt;"><g id="_Group_2" data-name="&lt;Group&gt;"><path id="_Path_" data-name="&lt;Path&gt;" class="cls-4" d="M48,14.47c0,1.74,1.91,3.17,4.26,3.17s4.25-1.43,4.25-3.17-1.91-3.17-4.25-3.17S48,12.72,48,14.47Z"/><path id="_Path_2" data-name="&lt;Path&gt;" class="cls-4" d="M43.82,23.87a1.48,1.48,0,0,1,.25-.16,6.36,6.36,0,0,0,3.35-5.8v-.12A6.24,6.24,0,0,0,44.14,12a1.15,1.15,0,0,1-.2-.15,2.92,2.92,0,0,0-.28-.21,5.55,5.55,0,0,0-3.21-.93A3,3,0,0,0,37.91,12a1.87,1.87,0,0,0-.32,1,4.59,4.59,0,0,0,.92,2.25,10.46,10.46,0,0,1,.88,1.62,3.49,3.49,0,0,1,.06.77,4.38,4.38,0,0,1-.08,1,10.76,10.76,0,0,1-.9,1.56,4.26,4.26,0,0,0-.95,2.2,1.9,1.9,0,0,0,.25.95c.94,1.64,3.51,2,5.73.7A2.57,2.57,0,0,0,43.82,23.87Z"/><path id="_Path_3" data-name="&lt;Path&gt;" class="cls-4" d="M48,21.21c0,1.75,1.91,3.17,4.26,3.17s4.25-1.42,4.25-3.17S54.56,18,52.22,18,48,19.46,48,21.21Z"/><path id="_Path_4" data-name="&lt;Path&gt;" class="cls-4" d="M50.15,26.42c0-1.41-1.46-2.5-3.31-2.5s-3.31,1.1-3.31,2.5,1.45,2.5,3.31,2.5S50.15,27.82,50.15,26.42Z"/><path id="_Path_5" data-name="&lt;Path&gt;" class="cls-4" d="M46.84,12c1.85,0,3.31-1.1,3.31-2.5S48.69,7,46.84,7s-3.31,1.1-3.31,2.5S45,12,46.84,12Z"/></g></g></g></g></g></g></svg>