<svg xmlns="http://www.w3.org/2000/svg" viewBox="0 0 18.95 21.89"><defs><style>.cls-1{fill:#3f51b5;}</style></defs><title>Asset 13</title><g id="Layer_2" data-name="Layer 2"><g id="website"><g id="Join_our_network" data-name="Join our network"><g id="logo"><g id="_Group_" data-name="&lt;Group&gt;"><g id="_Group_2" data-name="&lt;Group&gt;"><path id="_Path_" data-name="&lt;Path&gt;" class="cls-1" d="M10.44,7.44c0,1.75,1.91,3.17,4.26,3.17S19,9.19,19,7.44,17,4.27,14.7,4.27,10.44,5.7,10.44,7.44Z"/><path id="_Path_2" data-name="&lt;Path&gt;" class="cls-1" d="M6.3,16.85a1,1,0,0,1,.25-.16,6.36,6.36,0,0,0,3.35-5.8v-.12A6.26,6.26,0,0,0,6.62,5a.73.73,0,0,1-.2-.14,1.86,1.86,0,0,0-.28-.21,5.56,5.56,0,0,0-3.21-.94A3,3,0,0,0,.39,5,1.87,1.87,0,0,0,.07,6,4.56,4.56,0,0,0,1,8.28a10.57,10.57,0,0,1,.88,1.63,2.91,2.91,0,0,1,.06.77,4.38,4.38,0,0,1-.08,1A10.14,10.14,0,0,1,1,13.21,4.32,4.32,0,0,0,0,15.42a1.88,1.88,0,0,0,.26.94c.93,1.65,3.5,2,5.72.7A2.53,2.53,0,0,0,6.3,16.85Z"/><path id="_Path_3" data-name="&lt;Path&gt;" class="cls-1" d="M10.44,14.19c0,1.74,1.91,3.17,4.26,3.17S19,15.93,19,14.19,17,11,14.7,11,10.44,12.44,10.44,14.19Z"/><path id="_Path_4" data-name="&lt;Path&gt;" class="cls-1" d="M12.63,19.39c0-1.4-1.46-2.49-3.31-2.49S6,18,6,19.39s1.45,2.5,3.31,2.5S12.63,20.79,12.63,19.39Z"/><path id="_Path_5" data-name="&lt;Path&gt;" class="cls-1" d="M9.32,5c1.85,0,3.31-1.1,3.31-2.5S11.17,0,9.32,0,6,1.1,6,2.5,7.46,5,9.32,5Z"/></g></g></g></g></g></g></svg>