<svg id="Layer_1" data-name="Layer 1" xmlns="http://www.w3.org/2000/svg" viewBox="0 0 523.13 80.81"><defs><style>.cls-1{fill:none;}.cls-2{fill:#23306b;}</style></defs><title>snoutyfriend</title><path class="cls-1" d="M402.55,24.77a12.34,12.34,0,0,0-9.32,3.62v0q-3.51,3.64-4.14,10.29h25.75q-.18-6.74-3.37-10.33T402.55,24.77Z"/><path class="cls-1" d="M502.25,25.21q-6.5,0-10.06,4.36T488.6,41.86q0,8.1,3.59,12.6T502.29,59q6.46,0,10-4.44T515.76,42q0-8.09-3.51-12.47T502.25,25.21Z"/><path class="cls-2" d="M23,40.22l-7.53-1.81A10.55,10.55,0,0,1,10.33,36a5.72,5.72,0,0,1-1.59-4.23,5.67,5.67,0,0,1,2.59-5A12.74,12.74,0,0,1,18.56,25a20.15,20.15,0,0,1,13.37,5.19l2.46-5.37a18.62,18.62,0,0,0-7-4.32A26,26,0,0,0,18.56,19q-7.72,0-12.37,3.7a11.52,11.52,0,0,0-4.64,9.55,10.58,10.58,0,0,0,3,7.65,16.87,16.87,0,0,0,8.64,4.37L20.66,46a13,13,0,0,1,5.71,2.41A5.36,5.36,0,0,1,28.1,52.6a5.47,5.47,0,0,1-2.59,4.87c-1.73,1.12-4.24,1.68-7.51,1.68a26.32,26.32,0,0,1-8.31-1.23,23.63,23.63,0,0,1-7.23-4.05L0,59.33q6.56,5.73,17.71,5.73,8.09,0,12.79-3.45a11,11,0,0,0,4.69-9.29,10.25,10.25,0,0,0-3-7.68Q29.19,41.67,23,40.22Z"/><path class="cls-2" d="M68.7,19a18.2,18.2,0,0,0-8.91,2.16,14.89,14.89,0,0,0-6.1,6.23V20.11H46.41V64.43h7.37V39q0-6.33,3.64-10.09a13,13,0,0,1,9.74-3.73c3.52,0,6.09.95,7.69,2.82s2.41,4.87,2.41,9V64.43h7.37V36.58Q84.63,19,68.7,19Z"/><path class="cls-2" d="M200.55,45.1a13.93,13.93,0,0,1-3.55,10,12.27,12.27,0,0,1-9.38,3.78c-3.4,0-5.88-.93-7.46-2.78s-2.37-4.69-2.37-8.69V20.11h-7.37V47.62c0,5.77,1.33,10.11,4,13.06s6.65,4.41,11.92,4.41A17.2,17.2,0,0,0,194.85,63a14.27,14.27,0,0,0,5.87-6.12v7.55h7.19V20.11h-7.36Z"/><path class="cls-2" d="M231.48,48.69V25.94H244V20.11H231.53V6.64h-7.37V20.11h-8.65v5.83h8.65V49.23q-.06,7.47,4,11.65t12.06,4.18a26.68,26.68,0,0,0,4.55-.36l.36-5.82a29.9,29.9,0,0,1-4,.27Q231.48,59.14,231.48,48.69Z"/><polygon class="cls-2" points="269.88 56.42 255.05 20.2 247.22 20.2 266 63.88 258.51 80.81 266.06 80.81 292.27 20.2 284.9 20.2 269.88 56.42"/><path class="cls-2" d="M313.47,9.14Q316,6.37,321.57,6l4.18-.27L325.21,0l-3.64.18Q312.38.74,308,5.28t-4.41,13.37v1.46H294.9v5.83h8.65V64.43h7.37V25.94h12.56V20.11H310.92V17.64C310.93,13.83,311.78,11,313.47,9.14Z"/><path class="cls-2" d="M352.78,19.2q-10.93.91-14.65,8.65V20.11h-7.19V64.42h7.37V39.12a13.51,13.51,0,0,1,3.05-9q3-3.64,9.87-4.28l4.83-.45L355.42,19Z"/><rect class="cls-2" x="362.33" y="0.91" width="8.92" height="8.28"/><rect class="cls-2" x="363.06" y="20.11" width="7.37" height="44.32"/><path class="cls-2" d="M402.46,19a20.57,20.57,0,0,0-10.91,3,19.66,19.66,0,0,0-7.42,8.15,26.3,26.3,0,0,0-2.64,12.05q0,10.76,6,16.84t16.34,6.09a27.94,27.94,0,0,0,9.28-1.59,20.71,20.71,0,0,0,7.46-4.32l-2.46-5.37a21.91,21.91,0,0,1-14.19,5.28q-7,0-10.83-4T388.9,43.41h32.4V40.66q0-10.09-5-15.88T402.46,19ZM389.09,38.7q.63-6.64,4.14-10.29v0a12.34,12.34,0,0,1,9.32-3.62q5.73,0,8.92,3.6t3.37,10.33Z"/><path class="cls-2" d="M454.42,19a18.2,18.2,0,0,0-8.91,2.16,14.84,14.84,0,0,0-6.1,6.23V20.11h-7.28V64.43h7.37V39q0-6.33,3.66-10.09a13,13,0,0,1,9.74-3.73c3.52,0,6.09.95,7.69,2.82S463,32.87,463,37V64.43h7.35V36.58Q470.35,19,454.42,19Z"/><path class="cls-2" d="M515.76.27V27.74a14.71,14.71,0,0,0-5.87-6.47A17.62,17.62,0,0,0,500.83,19a18.25,18.25,0,0,0-17.2,10.85,27.87,27.87,0,0,0-2.45,12A28.39,28.39,0,0,0,483.63,54a19.23,19.23,0,0,0,6.92,8.15,18.34,18.34,0,0,0,10.28,2.91,17.52,17.52,0,0,0,9.06-2.27,14.68,14.68,0,0,0,5.87-6.46v8.1h7.37V.27Zm-3.51,54.29q-3.5,4.44-10,4.44t-10.1-4.54q-3.58-4.5-3.59-12.6,0-7.9,3.59-12.29t10.06-4.36q6.5,0,10,4.36T515.76,42Q515.76,50.13,512.25,54.56Z"/><path class="cls-2" d="M150,26.73a39.22,39.22,0,0,0-22.77-7.49h0a.05.05,0,0,1-.08,0h0a39.14,39.14,0,0,0-22.78,7.52C93.23,35,95.81,45.28,101.66,45.4c2.77.05,7.44-.78,8.57-3.45.84-2-1-3.1-.32-6.63.2-1,.74-3.77,2.91-4.45a4.74,4.74,0,0,1,3.06.28c1.1.46,4.63,4.2,3.76,8.84s-5.76,7.09-6.16,7.28c-4.57,2.1-8,.15-9,1.58-2.47,3.43,15.06,17.56,20.92,16a4.06,4.06,0,0,0,1-.44c.4-.86.27-4.26.53-9.51l.26-16.71.26,16.71c.26,5.25.13,8.65.53,9.52a3.69,3.69,0,0,0,1,.43c5.86,1.56,23.39-12.57,20.92-16-1-1.43-4.43.52-9-1.61-.4-.18-5.29-2.64-6.16-7.28s2.66-8.38,3.76-8.84a4.67,4.67,0,0,1,3.06-.27c2.17.67,2.71,3.39,2.91,4.45.68,3.52-1.16,4.62-.32,6.62,1.13,2.67,5.8,3.5,8.57,3.45C158.56,45.25,161.14,34.93,150,26.73Z"/><circle class="cls-2" cx="183.24" cy="34.45" r="1.5"/><circle class="cls-2" cx="195.24" cy="34.45" r="1.5"/><circle class="cls-2" cx="189.24" cy="44.45" r="1.5"/><circle class="cls-2" cx="59.24" cy="35.45" r="1.5"/><circle class="cls-2" cx="71.24" cy="35.45" r="1.5"/><circle class="cls-2" cx="65.24" cy="45.45" r="1.5"/></svg>