<svg xmlns="http://www.w3.org/2000/svg" viewBox="0 0 42.79 36.81"><defs><style>.cls-1{fill:#fff;}.cls-2{fill:#fcfcfc;stroke:#fff;stroke-miterlimit:10;stroke-width:0.75px;}</style></defs><title>weather</title><g id="Layer_2" data-name="Layer 2"><g id="website"><g id="Weather"><g id="Temp"><g id="Cloudy"><path class="cls-1" d="M39.57,33.26a12.6,12.6,0,0,0,1.73-7.47,12.71,12.71,0,0,0-25-2.28,9,9,0,0,0-5.89-1.05,9.08,9.08,0,0,0-7.53,8,.49.49,0,0,1,0,.12,5.88,5.88,0,0,0,5.95,6.25H33.11A7.48,7.48,0,0,0,39.57,33.26Z"/><line class="cls-2" x1="0.09" y1="13.26" x2="8" y2="15.28"/><line class="cls-2" x1="8.27" y1="1.99" x2="13.01" y2="8.63"/><line class="cls-2" x1="42.65" y1="9.67" x2="35.11" y2="12.79"/><line class="cls-2" x1="32.42" y1="0.17" x2="28.67" y2="7.42"/><path class="cls-1" d="M22.12,7.27A14.12,14.12,0,1,0,36.24,21.39,14.12,14.12,0,0,0,22.12,7.27Zm0,27.38A13.26,13.26,0,1,1,35.37,21.39,13.26,13.26,0,0,1,22.12,34.65Z"/></g></g></g></g></g></svg>